<mxfile host="app.diagrams.net" agent="Mozilla/5.0 (X11; Linux x86_64) AppleWebKit/537.36 (KHTML, like Gecko) Chrome/131.0.0.0 Safari/537.36" version="25.0.1">
  <diagram name="Page-1" id="FRJtY2e6gZqRtB03q_Hn">
    <mxGraphModel dx="779" dy="434" grid="1" gridSize="10" guides="1" tooltips="1" connect="1" arrows="1" fold="1" page="1" pageScale="1" pageWidth="827" pageHeight="1169" math="0" shadow="0">
      <root>
        <mxCell id="0" />
        <mxCell id="1" parent="0" />
        <mxCell id="THShhmyBNm_63ew12cfT-1" value="PI" style="rounded=0;whiteSpace=wrap;html=1;" parent="1" vertex="1">
          <mxGeometry x="454.5" y="210" width="71" height="40" as="geometry" />
        </mxCell>
        <mxCell id="THShhmyBNm_63ew12cfT-2" value="Computer" style="rounded=0;whiteSpace=wrap;html=1;" parent="1" vertex="1">
          <mxGeometry x="370" y="210" width="68" height="40" as="geometry" />
        </mxCell>
        <mxCell id="THShhmyBNm_63ew12cfT-3" value="" style="rounded=1;whiteSpace=wrap;html=1;" parent="1" vertex="1">
          <mxGeometry x="340" y="280" width="310" height="250" as="geometry" />
        </mxCell>
        <mxCell id="THShhmyBNm_63ew12cfT-38" style="edgeStyle=orthogonalEdgeStyle;rounded=0;orthogonalLoop=1;jettySize=auto;html=1;exitX=0.5;exitY=1;exitDx=0;exitDy=0;entryX=0.5;entryY=0;entryDx=0;entryDy=0;" parent="1" source="THShhmyBNm_63ew12cfT-5" target="THShhmyBNm_63ew12cfT-16" edge="1">
          <mxGeometry relative="1" as="geometry">
            <Array as="points">
              <mxPoint x="406" y="380" />
              <mxPoint x="382" y="380" />
            </Array>
          </mxGeometry>
        </mxCell>
        <mxCell id="THShhmyBNm_63ew12cfT-5" value="&lt;font style=&quot;font-size: 8px;&quot;&gt;USB Switch&lt;/font&gt;" style="rounded=0;whiteSpace=wrap;html=1;" parent="1" vertex="1">
          <mxGeometry x="378" y="350.52" width="56" height="20" as="geometry" />
        </mxCell>
        <mxCell id="THShhmyBNm_63ew12cfT-39" style="edgeStyle=orthogonalEdgeStyle;rounded=0;orthogonalLoop=1;jettySize=auto;html=1;exitX=0.5;exitY=1;exitDx=0;exitDy=0;entryX=1;entryY=0.25;entryDx=0;entryDy=0;fillColor=#ffe6cc;strokeColor=#d79b00;" parent="1" source="THShhmyBNm_63ew12cfT-6" target="THShhmyBNm_63ew12cfT-16" edge="1">
          <mxGeometry relative="1" as="geometry" />
        </mxCell>
        <mxCell id="THShhmyBNm_63ew12cfT-46" value="5V" style="edgeLabel;html=1;align=center;verticalAlign=middle;resizable=0;points=[];" parent="THShhmyBNm_63ew12cfT-39" vertex="1" connectable="0">
          <mxGeometry x="-0.0211" y="-1" relative="1" as="geometry">
            <mxPoint as="offset" />
          </mxGeometry>
        </mxCell>
        <mxCell id="THShhmyBNm_63ew12cfT-44" value="5V" style="edgeStyle=orthogonalEdgeStyle;rounded=0;orthogonalLoop=1;jettySize=auto;html=1;exitX=0.75;exitY=1;exitDx=0;exitDy=0;entryX=1;entryY=1;entryDx=0;entryDy=0;entryPerimeter=0;fillColor=#ffe6cc;strokeColor=#d79b00;" parent="1" source="THShhmyBNm_63ew12cfT-6" edge="1">
          <mxGeometry relative="1" as="geometry">
            <Array as="points">
              <mxPoint x="506" y="450" />
              <mxPoint x="320" y="450" />
            </Array>
            <mxPoint x="320" y="430" as="targetPoint" />
          </mxGeometry>
        </mxCell>
        <mxCell id="THShhmyBNm_63ew12cfT-6" value="&lt;font style=&quot;font-size: 8px;&quot;&gt;Power &quot;selector&quot;&lt;/font&gt;" style="rounded=0;whiteSpace=wrap;html=1;" parent="1" vertex="1">
          <mxGeometry x="458" y="350.52" width="64" height="20" as="geometry" />
        </mxCell>
        <mxCell id="THShhmyBNm_63ew12cfT-16" value="" style="rounded=1;whiteSpace=wrap;html=1;" parent="1" vertex="1">
          <mxGeometry x="351.5" y="400" width="60" height="30" as="geometry" />
        </mxCell>
        <mxCell id="THShhmyBNm_63ew12cfT-15" value="" style="sketch=0;aspect=fixed;pointerEvents=1;shadow=0;dashed=0;html=1;strokeColor=none;labelPosition=center;verticalLabelPosition=bottom;verticalAlign=top;align=center;fillColor=#00188D;shape=mxgraph.mscae.enterprise.usb" parent="1" vertex="1">
          <mxGeometry x="369.5" y="409.48" width="24" height="11.04" as="geometry" />
        </mxCell>
        <mxCell id="THShhmyBNm_63ew12cfT-19" value="" style="rounded=1;whiteSpace=wrap;html=1;" parent="1" vertex="1">
          <mxGeometry x="364" y="480" width="100" height="40" as="geometry" />
        </mxCell>
        <mxCell id="THShhmyBNm_63ew12cfT-20" value="" style="ellipse;whiteSpace=wrap;html=1;aspect=fixed;fillColor=#0050ef;fontColor=#ffffff;strokeColor=#001DBC;" parent="1" vertex="1">
          <mxGeometry x="434" y="492.5" width="15" height="15" as="geometry" />
        </mxCell>
        <mxCell id="THShhmyBNm_63ew12cfT-42" style="edgeStyle=orthogonalEdgeStyle;rounded=0;orthogonalLoop=1;jettySize=auto;html=1;exitX=0.5;exitY=0;exitDx=0;exitDy=0;fillColor=#ffe6cc;strokeColor=#d79b00;" parent="1" edge="1">
          <mxGeometry relative="1" as="geometry">
            <mxPoint x="413.0000000000001" y="492.5000000000001" as="sourcePoint" />
            <mxPoint x="294" y="430" as="targetPoint" />
          </mxGeometry>
        </mxCell>
        <mxCell id="THShhmyBNm_63ew12cfT-47" value="0-50V" style="edgeLabel;html=1;align=center;verticalAlign=middle;resizable=0;points=[];" parent="THShhmyBNm_63ew12cfT-42" vertex="1" connectable="0">
          <mxGeometry x="-0.1917" relative="1" as="geometry">
            <mxPoint as="offset" />
          </mxGeometry>
        </mxCell>
        <mxCell id="THShhmyBNm_63ew12cfT-21" value="" style="ellipse;whiteSpace=wrap;html=1;aspect=fixed;fillColor=#f0a30a;fontColor=#000000;strokeColor=#BD7000;" parent="1" vertex="1">
          <mxGeometry x="406.5" y="492.5" width="15" height="15" as="geometry" />
        </mxCell>
        <mxCell id="THShhmyBNm_63ew12cfT-22" value="" style="ellipse;whiteSpace=wrap;html=1;aspect=fixed;" parent="1" vertex="1">
          <mxGeometry x="378" y="492.5" width="15" height="15" as="geometry" />
        </mxCell>
        <mxCell id="THShhmyBNm_63ew12cfT-49" style="edgeStyle=orthogonalEdgeStyle;rounded=0;orthogonalLoop=1;jettySize=auto;html=1;exitX=0.25;exitY=1;exitDx=0;exitDy=0;entryX=1;entryY=0.75;entryDx=0;entryDy=0;startArrow=classic;startFill=1;" parent="1" source="THShhmyBNm_63ew12cfT-25" target="THShhmyBNm_63ew12cfT-16" edge="1">
          <mxGeometry relative="1" as="geometry" />
        </mxCell>
        <mxCell id="THShhmyBNm_63ew12cfT-51" style="edgeStyle=orthogonalEdgeStyle;rounded=0;orthogonalLoop=1;jettySize=auto;html=1;exitX=1;exitY=0.5;exitDx=0;exitDy=0;entryX=1;entryY=0.5;entryDx=0;entryDy=0;shape=link;" parent="1" source="THShhmyBNm_63ew12cfT-25" target="THShhmyBNm_63ew12cfT-50" edge="1">
          <mxGeometry relative="1" as="geometry">
            <Array as="points">
              <mxPoint x="690" y="230" />
              <mxPoint x="690" y="500" />
            </Array>
          </mxGeometry>
        </mxCell>
        <mxCell id="THShhmyBNm_63ew12cfT-54" value="VCC+GND+S" style="edgeLabel;html=1;align=center;verticalAlign=middle;resizable=0;points=[];rotation=-90;" parent="THShhmyBNm_63ew12cfT-51" vertex="1" connectable="0">
          <mxGeometry x="-0.0696" y="-1" relative="1" as="geometry">
            <mxPoint as="offset" />
          </mxGeometry>
        </mxCell>
        <mxCell id="THShhmyBNm_63ew12cfT-25" value="Power Supply" style="rounded=0;whiteSpace=wrap;html=1;" parent="1" vertex="1">
          <mxGeometry x="560" y="210.51999999999998" width="90" height="39.48" as="geometry" />
        </mxCell>
        <mxCell id="THShhmyBNm_63ew12cfT-32" style="edgeStyle=orthogonalEdgeStyle;rounded=0;orthogonalLoop=1;jettySize=auto;html=1;exitX=0.25;exitY=1;exitDx=0;exitDy=0;entryX=0.25;entryY=0;entryDx=0;entryDy=0;" parent="1" source="THShhmyBNm_63ew12cfT-27" target="THShhmyBNm_63ew12cfT-5" edge="1">
          <mxGeometry relative="1" as="geometry" />
        </mxCell>
        <mxCell id="THShhmyBNm_63ew12cfT-27" value="" style="rounded=1;whiteSpace=wrap;html=1;" parent="1" vertex="1">
          <mxGeometry x="374" y="290.52" width="60" height="30" as="geometry" />
        </mxCell>
        <mxCell id="THShhmyBNm_63ew12cfT-28" value="" style="sketch=0;aspect=fixed;pointerEvents=1;shadow=0;dashed=0;html=1;strokeColor=none;labelPosition=center;verticalLabelPosition=bottom;verticalAlign=top;align=center;fillColor=#00188D;shape=mxgraph.mscae.enterprise.usb" parent="1" vertex="1">
          <mxGeometry x="392" y="298.96" width="24" height="11.04" as="geometry" />
        </mxCell>
        <mxCell id="THShhmyBNm_63ew12cfT-33" style="edgeStyle=orthogonalEdgeStyle;rounded=0;orthogonalLoop=1;jettySize=auto;html=1;exitX=0.25;exitY=1;exitDx=0;exitDy=0;entryX=0.5;entryY=0;entryDx=0;entryDy=0;" parent="1" source="THShhmyBNm_63ew12cfT-30" target="THShhmyBNm_63ew12cfT-5" edge="1">
          <mxGeometry relative="1" as="geometry">
            <Array as="points">
              <mxPoint x="475" y="331" />
              <mxPoint x="406" y="331" />
            </Array>
          </mxGeometry>
        </mxCell>
        <mxCell id="THShhmyBNm_63ew12cfT-35" style="edgeStyle=orthogonalEdgeStyle;rounded=0;orthogonalLoop=1;jettySize=auto;html=1;exitX=0.75;exitY=1;exitDx=0;exitDy=0;entryX=0.75;entryY=0;entryDx=0;entryDy=0;fillColor=#ffe6cc;strokeColor=#d79b00;" parent="1" source="THShhmyBNm_63ew12cfT-30" target="THShhmyBNm_63ew12cfT-6" edge="1">
          <mxGeometry relative="1" as="geometry" />
        </mxCell>
        <mxCell id="THShhmyBNm_63ew12cfT-30" value="" style="rounded=1;whiteSpace=wrap;html=1;" parent="1" vertex="1">
          <mxGeometry x="460" y="290.52" width="60" height="30" as="geometry" />
        </mxCell>
        <mxCell id="THShhmyBNm_63ew12cfT-31" value="" style="sketch=0;aspect=fixed;pointerEvents=1;shadow=0;dashed=0;html=1;strokeColor=none;labelPosition=center;verticalLabelPosition=bottom;verticalAlign=top;align=center;fillColor=#00188D;shape=mxgraph.mscae.enterprise.usb" parent="1" vertex="1">
          <mxGeometry x="478" y="298.96" width="24" height="11.04" as="geometry" />
        </mxCell>
        <mxCell id="THShhmyBNm_63ew12cfT-34" style="edgeStyle=orthogonalEdgeStyle;rounded=0;orthogonalLoop=1;jettySize=auto;html=1;exitX=0.75;exitY=1;exitDx=0;exitDy=0;entryX=0.219;entryY=0.041;entryDx=0;entryDy=0;entryPerimeter=0;fillColor=#ffe6cc;strokeColor=#d79b00;" parent="1" source="THShhmyBNm_63ew12cfT-27" target="THShhmyBNm_63ew12cfT-6" edge="1">
          <mxGeometry relative="1" as="geometry">
            <Array as="points">
              <mxPoint x="419" y="341" />
              <mxPoint x="472" y="341" />
            </Array>
          </mxGeometry>
        </mxCell>
        <mxCell id="THShhmyBNm_63ew12cfT-45" style="edgeStyle=orthogonalEdgeStyle;rounded=0;orthogonalLoop=1;jettySize=auto;html=1;exitX=0;exitY=0.5;exitDx=0;exitDy=0;entryX=0;entryY=1;entryDx=0;entryDy=0;entryPerimeter=0;" parent="1" source="THShhmyBNm_63ew12cfT-22" edge="1">
          <mxGeometry relative="1" as="geometry">
            <mxPoint x="270" y="430" as="targetPoint" />
          </mxGeometry>
        </mxCell>
        <mxCell id="THShhmyBNm_63ew12cfT-52" style="rounded=0;orthogonalLoop=1;jettySize=auto;html=1;exitX=0;exitY=0.5;exitDx=0;exitDy=0;entryX=1;entryY=0.5;entryDx=0;entryDy=0;shape=link;" parent="1" source="THShhmyBNm_63ew12cfT-50" target="THShhmyBNm_63ew12cfT-19" edge="1">
          <mxGeometry relative="1" as="geometry" />
        </mxCell>
        <mxCell id="THShhmyBNm_63ew12cfT-50" value="Screw terminal" style="rounded=1;whiteSpace=wrap;html=1;" parent="1" vertex="1">
          <mxGeometry x="499.5" y="485" width="70" height="30" as="geometry" />
        </mxCell>
        <mxCell id="THShhmyBNm_63ew12cfT-59" value="" style="endArrow=none;dashed=1;html=1;rounded=0;" parent="1" edge="1">
          <mxGeometry width="50" height="50" relative="1" as="geometry">
            <mxPoint x="250" y="340" as="sourcePoint" />
            <mxPoint x="330" y="340" as="targetPoint" />
          </mxGeometry>
        </mxCell>
        <mxCell id="THShhmyBNm_63ew12cfT-60" value="" style="endArrow=none;dashed=1;html=1;rounded=0;" parent="1" edge="1">
          <mxGeometry width="50" height="50" relative="1" as="geometry">
            <mxPoint x="250" y="540" as="sourcePoint" />
            <mxPoint x="250" y="340" as="targetPoint" />
          </mxGeometry>
        </mxCell>
        <mxCell id="THShhmyBNm_63ew12cfT-61" value="" style="endArrow=none;dashed=1;html=1;rounded=0;" parent="1" edge="1">
          <mxGeometry width="50" height="50" relative="1" as="geometry">
            <mxPoint x="250" y="540" as="sourcePoint" />
            <mxPoint x="580" y="540" as="targetPoint" />
          </mxGeometry>
        </mxCell>
        <mxCell id="THShhmyBNm_63ew12cfT-63" value="" style="endArrow=none;dashed=1;html=1;rounded=0;" parent="1" edge="1">
          <mxGeometry width="50" height="50" relative="1" as="geometry">
            <mxPoint x="580" y="540" as="sourcePoint" />
            <mxPoint x="580" y="470" as="targetPoint" />
          </mxGeometry>
        </mxCell>
        <mxCell id="THShhmyBNm_63ew12cfT-64" value="" style="endArrow=none;dashed=1;html=1;rounded=0;" parent="1" edge="1">
          <mxGeometry width="50" height="50" relative="1" as="geometry">
            <mxPoint x="330" y="470" as="sourcePoint" />
            <mxPoint x="580" y="470" as="targetPoint" />
          </mxGeometry>
        </mxCell>
        <mxCell id="THShhmyBNm_63ew12cfT-65" value="" style="endArrow=none;dashed=1;html=1;rounded=0;" parent="1" edge="1">
          <mxGeometry width="50" height="50" relative="1" as="geometry">
            <mxPoint x="330" y="470" as="sourcePoint" />
            <mxPoint x="330" y="340" as="targetPoint" />
          </mxGeometry>
        </mxCell>
        <mxCell id="THShhmyBNm_63ew12cfT-66" value="4x" style="text;html=1;align=center;verticalAlign=middle;whiteSpace=wrap;rounded=0;" parent="1" vertex="1">
          <mxGeometry x="265" y="507.5" width="60" height="30" as="geometry" />
        </mxCell>
        <mxCell id="THShhmyBNm_63ew12cfT-36" style="edgeStyle=orthogonalEdgeStyle;rounded=0;orthogonalLoop=1;jettySize=auto;html=1;exitX=0.5;exitY=1;exitDx=0;exitDy=0;entryX=0.5;entryY=0;entryDx=0;entryDy=0;" parent="1" source="THShhmyBNm_63ew12cfT-2" target="THShhmyBNm_63ew12cfT-27" edge="1">
          <mxGeometry relative="1" as="geometry" />
        </mxCell>
        <mxCell id="THShhmyBNm_63ew12cfT-37" style="edgeStyle=orthogonalEdgeStyle;rounded=0;orthogonalLoop=1;jettySize=auto;html=1;exitX=0.5;exitY=1;exitDx=0;exitDy=0;entryX=0.5;entryY=0;entryDx=0;entryDy=0;" parent="1" source="THShhmyBNm_63ew12cfT-1" target="THShhmyBNm_63ew12cfT-30" edge="1">
          <mxGeometry relative="1" as="geometry" />
        </mxCell>
        <mxCell id="THShhmyBNm_63ew12cfT-71" value="Micro" style="text;html=1;align=center;verticalAlign=middle;whiteSpace=wrap;rounded=0;" parent="1" vertex="1">
          <mxGeometry x="380" y="310" width="44" height="10.52" as="geometry" />
        </mxCell>
        <mxCell id="THShhmyBNm_63ew12cfT-72" value="Micro" style="text;html=1;align=center;verticalAlign=middle;whiteSpace=wrap;rounded=0;" parent="1" vertex="1">
          <mxGeometry x="468" y="310" width="44" height="10.52" as="geometry" />
        </mxCell>
        <mxCell id="THShhmyBNm_63ew12cfT-73" value="A Female" style="text;html=1;align=center;verticalAlign=middle;whiteSpace=wrap;rounded=0;" parent="1" vertex="1">
          <mxGeometry x="351.5" y="419.47999999999996" width="60" height="10.52" as="geometry" />
        </mxCell>
        <mxCell id="THShhmyBNm_63ew12cfT-74" value="" style="verticalLabelPosition=bottom;html=1;verticalAlign=top;align=center;strokeColor=none;fillColor=#00BEF2;shape=mxgraph.azure.tablet;pointerEvents=1;" parent="1" vertex="1">
          <mxGeometry x="465" y="160" width="50" height="37.5" as="geometry" />
        </mxCell>
        <mxCell id="THShhmyBNm_63ew12cfT-76" value="Banana" style="text;html=1;align=center;verticalAlign=middle;whiteSpace=wrap;rounded=0;" parent="1" vertex="1">
          <mxGeometry x="384" y="500" width="60" height="30" as="geometry" />
        </mxCell>
        <mxCell id="mwkAxSsjq4ostzTzupPD-1" value="&lt;font style=&quot;font-size: 10px;&quot;&gt;Optocoupler&lt;/font&gt;" style="rounded=0;whiteSpace=wrap;html=1;" vertex="1" parent="1">
          <mxGeometry x="263.5" y="395" width="61.5" height="35" as="geometry" />
        </mxCell>
        <mxCell id="mwkAxSsjq4ostzTzupPD-3" value="" style="html=1;verticalLabelPosition=bottom;align=center;labelBackgroundColor=#ffffff;verticalAlign=top;strokeWidth=2;strokeColor=#0080F0;shadow=0;dashed=0;shape=mxgraph.ios7.icons.lightbulb;" vertex="1" parent="1">
          <mxGeometry x="282.85" y="350.52" width="22.8" height="29.7" as="geometry" />
        </mxCell>
        <mxCell id="mwkAxSsjq4ostzTzupPD-4" style="edgeStyle=orthogonalEdgeStyle;rounded=0;orthogonalLoop=1;jettySize=auto;html=1;exitX=0.5;exitY=0;exitDx=0;exitDy=0;entryX=0.488;entryY=1.074;entryDx=0;entryDy=0;entryPerimeter=0;" edge="1" parent="1" source="mwkAxSsjq4ostzTzupPD-1" target="mwkAxSsjq4ostzTzupPD-3">
          <mxGeometry relative="1" as="geometry" />
        </mxCell>
      </root>
    </mxGraphModel>
  </diagram>
</mxfile>
